<?xml version="1.0" standalone="no"?>
<!DOCTYPE svg PUBLIC "-//W3C//DTD SVG 20010904//EN"
 "http://www.w3.org/TR/2001/REC-SVG-20010904/DTD/svg10.dtd">
<svg version="1.0" xmlns="http://www.w3.org/2000/svg"
 width="512.000000pt" height="512.000000pt" viewBox="0 0 512.000000 512.000000"
 preserveAspectRatio="xMidYMid meet">

<g transform="translate(0.000000,512.000000) scale(0.100000,-0.100000)"
fill="#000000" stroke="none">
<path d="M2485 5113 c-88 -22 -1763 -537 -1788 -549 -82 -43 -147 -124 -172
-217 -15 -57 -16 -180 -13 -1397 l3 -1335 23 -80 c47 -165 145 -324 260 -423
76 -66 1613 -1070 1675 -1093 57 -23 110 -24 167 -4 24 9 404 250 844 537 710
463 810 531 876 599 129 131 214 303 239 483 7 52 11 498 11 1365 0 1426 3
1357 -65 1457 -36 52 -66 79 -122 108 -28 14 -1550 482 -1744 536 -69 19 -148
24 -194 13z m974 -427 c465 -142 856 -262 870 -268 42 -15 88 -67 100 -111 9
-31 11 -390 9 -1357 -4 -1231 -5 -1319 -22 -1375 -41 -138 -128 -273 -226
-350 -27 -22 -400 -269 -828 -548 -657 -429 -782 -507 -807 -504 -32 3 -1559
995 -1640 1064 -93 80 -172 206 -211 338 -17 56 -18 144 -22 1375 -2 967 0
1326 8 1355 20 69 62 102 175 137 55 17 451 138 880 270 629 192 789 237 825
235 25 -2 425 -120 889 -261z"/>
<path d="M1737 4531 c-428 -131 -790 -244 -804 -252 -14 -8 -38 -32 -52 -53
l-26 -40 -3 -1220 c-2 -804 1 -1245 8 -1291 15 -101 74 -215 147 -286 71 -70
1459 -977 1516 -992 23 -6 51 -6 75 0 57 15 1443 922 1515 991 73 72 132 187
147 287 7 46 10 487 8 1291 l-3 1220 -27 41 c-14 22 -41 47 -60 56 -73 34
-1582 487 -1622 486 -23 0 -383 -105 -819 -238z m733 -334 l0 -374 -23 -10
c-81 -37 -139 -132 -140 -228 0 -80 25 -136 83 -188 101 -91 239 -91 340 0 58
52 83 108 83 188 -1 96 -59 191 -140 228 l-23 10 0 374 0 375 28 -7 c15 -3 90
-25 167 -49 l140 -43 3 -418 c2 -381 4 -420 20 -438 26 -29 57 -38 92 -26 59
21 60 30 60 449 0 209 1 380 3 380 1 -1 94 -29 207 -64 l205 -63 3 -542 2
-542 -24 -24 c-22 -22 -34 -25 -93 -25 -65 0 -69 1 -81 28 -6 16 -26 43 -44
61 -152 155 -413 63 -435 -154 -15 -148 101 -275 251 -275 100 1 185 50 227
133 l19 37 72 0 c39 0 88 5 110 12 51 15 121 77 147 131 20 42 21 57 21 568 0
289 2 528 5 531 3 3 81 -18 173 -46 l167 -52 3 -742 2 -742 -138 0 c-135 0
-139 1 -149 23 -36 78 -133 140 -223 141 -79 1 -141 -26 -193 -84 -91 -101
-91 -239 0 -340 52 -58 108 -83 188 -83 96 1 191 59 228 140 10 22 14 23 149
23 l140 0 -4 -397 -3 -398 -26 -55 c-14 -31 -41 -73 -60 -94 -33 -38 -228
-176 -249 -176 -7 0 -10 95 -10 284 l0 285 -26 20 c-37 29 -85 27 -115 -5
l-24 -26 -3 -341 -3 -342 -200 -130 c-111 -71 -205 -131 -210 -133 -5 -2 -9
185 -9 467 0 390 2 471 14 471 21 0 105 79 125 119 81 158 -25 350 -203 368
-66 7 -125 -10 -178 -50 -144 -110 -126 -346 35 -428 l37 -19 0 -524 0 -524
-167 -109 -168 -109 -3 930 c-2 869 -1 932 15 941 44 26 108 94 126 135 54
119 0 270 -116 328 -172 86 -369 -32 -370 -222 0 -36 7 -78 17 -101 19 -45 77
-109 119 -131 l27 -15 0 -934 0 -934 -170 111 -170 111 0 523 0 523 29 15
c129 67 179 221 113 347 -50 95 -144 147 -248 136 -178 -18 -284 -210 -203
-368 20 -40 104 -119 125 -119 12 0 14 -81 14 -471 0 -259 -4 -469 -9 -467 -4
1 -99 62 -209 133 l-201 130 -3 342 -3 341 -24 26 c-30 32 -78 34 -115 5 l-26
-20 0 -285 c0 -189 -3 -284 -10 -284 -21 0 -216 138 -249 176 -19 21 -46 63
-60 94 l-26 55 -3 398 -3 397 139 0 c135 0 139 -1 149 -23 37 -81 132 -139
228 -140 80 0 136 25 188 83 91 101 91 239 0 340 -52 58 -114 85 -193 84 -90
-1 -187 -63 -223 -141 -10 -22 -14 -23 -149 -23 l-138 0 2 742 3 742 167 52
c92 28 170 49 173 46 3 -3 5 -242 5 -531 0 -511 1 -526 21 -568 26 -54 96
-116 147 -131 22 -7 71 -12 110 -12 l72 0 19 -37 c100 -196 397 -170 467 41
70 210 -158 407 -356 306 -44 -22 -96 -74 -112 -112 -12 -27 -16 -28 -81 -28
-59 0 -71 3 -93 25 l-24 24 2 542 3 542 205 62 205 62 5 -386 c4 -279 8 -392
17 -407 16 -28 67 -46 96 -35 58 23 57 10 59 465 l3 418 155 48 c85 27 161 49
168 49 9 1 12 -80 12 -372z m145 -552 c38 -37 37 -88 -1 -122 -80 -73 -186 46
-109 122 15 16 36 25 55 25 19 0 40 -9 55 -25z m-594 -511 c26 -24 33 -68 15
-102 -26 -50 -91 -58 -131 -17 -76 75 37 191 116 119z m1188 0 c61 -51 26
-144 -54 -144 -86 0 -113 118 -35 157 37 19 55 16 89 -13z m-618 -324 c22 0
49 -42 49 -77 0 -50 -32 -83 -80 -83 -86 0 -115 121 -37 155 18 8 38 12 45 10
8 -3 18 -5 23 -5z m-991 -198 c60 -76 -32 -172 -114 -118 -51 33 -45 109 11
137 41 20 78 14 103 -19z m2055 -5 c59 -84 -64 -177 -132 -101 -28 31 -29 73
-3 107 33 42 104 39 135 -6z m-1566 -402 c75 -38 43 -155 -43 -155 -26 0 -40
7 -61 32 -32 38 -29 81 11 116 29 26 54 28 93 7z m1035 -7 c40 -35 43 -78 11
-116 -34 -41 -84 -44 -120 -7 -75 74 30 192 109 123z"/>
</g>
</svg>
