<?xml version="1.0" encoding="UTF-8"?>
<svg version="1.1" xmlns="http://www.w3.org/2000/svg" width="800" height="600">
<path d="M0 0 C0.62165039 0.25249512 1.24330078 0.50499023 1.88378906 0.76513672 C12.74891785 5.31878499 21.62267769 11.96044371 30.78173828 19.26025391 C34.53571071 22.20443259 38.39550689 25.00205669 42.25 27.8125 C49.05910374 32.79946888 55.79805036 37.87001372 62.5 43 C69.11945247 48.06653912 75.77503 53.07435308 82.5 58 C90.12740017 63.5866242 97.65644565 69.29276338 105.1640625 75.0390625 C110.89902727 79.42064326 116.67759563 83.73542958 122.5 88 C130.12740017 93.5866242 137.65644565 99.29276338 145.1640625 105.0390625 C150.89902727 109.42064326 156.67759563 113.73542958 162.5 118 C170.12740017 123.5866242 177.65644565 129.29276338 185.1640625 135.0390625 C190.89902727 139.42064326 196.67759563 143.73542958 202.5 148 C210.12740017 153.5866242 217.65644565 159.29276338 225.1640625 165.0390625 C231.6633434 170.0045898 238.22867507 174.87178773 244.82714844 179.7043457 C250.85496422 184.12980688 256.8096836 188.64547236 262.75 193.1875 C264.50514339 194.52222082 266.26035036 195.85685804 268.015625 197.19140625 C271.19357205 199.61028562 274.34758246 202.05539958 277.484375 204.52734375 C278.82257822 205.56033443 280.16109776 206.59291551 281.5 207.625 C282.38896973 208.34465942 282.38896973 208.34465942 283.29589844 209.07885742 C285.11866946 210.53240088 285.11866946 210.53240088 288 212 C291.68819009 210.93525242 294.40811792 209.13843113 297.4140625 206.796875 C298.66413086 205.83201172 298.66413086 205.83201172 299.93945312 204.84765625 C301.26879883 203.80931641 301.26879883 203.80931641 302.625 202.75 C304.52244277 201.28516892 306.42090037 199.82165155 308.3203125 198.359375 C309.75165527 197.25625977 309.75165527 197.25625977 311.21191406 196.13085938 C315.26741633 193.03134766 319.37898363 190.01154553 323.5 187 C330.22554781 182.07515884 336.88054811 177.0665013 343.5 172 C350.88641792 166.34646605 358.33194466 160.78529806 365.8359375 155.2890625 C371.77671433 150.92722968 377.6475326 146.47945452 383.5 142 C390.88641792 136.34646605 398.33194466 130.78529806 405.8359375 125.2890625 C411.77671433 120.92722968 417.6475326 116.47945452 423.5 112 C430.88641792 106.34646605 438.33194466 100.78529806 445.8359375 95.2890625 C451.77671433 90.92722968 457.6475326 86.47945452 463.5 82 C470.11947282 76.93348268 476.77509458 71.92573836 483.5 67 C491.19448249 61.36280971 498.79749156 55.61358203 506.375 49.8203125 C512.19075206 45.37449315 518.03042382 40.96338469 523.89648438 36.58422852 C528.60172751 33.06538561 533.26962952 29.49978534 537.93139648 25.92358398 C565.18727242 5.04648599 588.11141168 -7.73792953 623.47460938 -3.71875 C637.08711446 -1.49423663 650.68779593 6.02536215 661 15 C661.86238281 15.6496875 661.86238281 15.6496875 662.7421875 16.3125 C677.29591218 27.57989975 685.906927 46.23524054 689 64 C689.6912356 70.72207969 689.54183582 77.49402334 689.50793457 84.2427063 C689.51255136 86.25929427 689.51890946 88.27587886 689.52684355 90.29245651 C689.54345278 95.79752916 689.53532888 101.30232239 689.52289867 106.8073957 C689.51381608 112.75837527 689.52783372 118.70930815 689.53881836 124.66027832 C689.55554878 135.63148421 689.5541393 146.60259478 689.54317249 157.57380566 C689.53309085 167.70980563 689.5304925 177.84577323 689.53526306 187.98177719 C689.53572137 188.99220646 689.53572137 188.99220646 689.53618894 190.02304844 C689.53743439 192.75780289 689.538708 195.49255733 689.540028 198.22731174 C689.5522496 223.85360277 689.54119253 249.47983755 689.51964041 275.10611989 C689.50065523 297.85316604 689.50236178 320.6001226 689.52148438 343.34716797 C689.54292016 368.93106677 689.551387 394.51491594 689.53903532 420.09882247 C689.53775253 422.82783308 689.53650117 425.55684371 689.53526306 428.28585434 C689.53494675 428.95775777 689.53463044 429.6296612 689.53430455 430.32192534 C689.52976221 440.4507565 689.53506156 450.57955167 689.54518127 460.70837784 C689.55641022 472.2283051 689.55334206 483.74812336 689.5320583 495.26803817 C689.52156072 501.14308698 689.51740427 507.01795418 689.53065491 512.89300156 C689.54261085 518.27547366 689.53596328 523.65759653 689.5147447 529.04003714 C689.51029228 530.98260319 689.51251413 532.925199 689.52224785 534.86774577 C689.60778396 553.36291808 686.38724327 567.42893957 673.1875 581.3125 C633.3961616 619.12625683 533.41048835 596 507 596 C506.67 494.69 506.34 393.38 506 289 C500.06 293.62 494.12 298.24 488 303 C484.90622332 305.31157654 481.81359956 307.60962384 478.6875 309.875 C471.89637129 314.8377479 465.17845525 319.88670225 458.5 325 C451.11367991 330.65365962 443.66805268 336.21470389 436.1640625 341.7109375 C430.22328567 346.07277032 424.3524674 350.52054548 418.5 355 C411.11358208 360.65353395 403.66805534 366.21470194 396.1640625 371.7109375 C390.22328567 376.07277032 384.3524674 380.52054548 378.5 385 C371.11358208 390.65353395 363.66805534 396.21470194 356.1640625 401.7109375 C350.2232821 406.07277294 344.35259083 410.52070271 338.5 415 C331.07310748 420.68163414 323.61131495 426.30875868 316.05419922 431.81640625 C311.91001695 434.83796958 307.81396161 437.90548256 303.765625 441.0546875 C302.47519287 442.0444458 302.47519287 442.0444458 301.15869141 443.05419922 C299.50382616 444.32508725 297.85965725 445.61006034 296.22802734 446.91064453 C290.76450696 451.07078768 290.76450696 451.07078768 287.46875 450.765625 C283.85738285 448.18281178 280.3371635 445.53038708 276.875 442.75 C270.56075188 437.7566191 264.18907178 432.87200628 257.6875 428.125 C250.89801774 423.15995481 244.17850859 418.1133386 237.5 413 C230.88061726 407.9333719 224.22496793 402.92564541 217.5 398 C209.87259983 392.4133758 202.34355435 386.70723662 194.8359375 380.9609375 C189.10097273 376.57935674 183.32240437 372.26457042 177.5 368 C169.87259983 362.4133758 162.34355435 356.70723662 154.8359375 350.9609375 C149.10097273 346.57935674 143.32240437 342.26457042 137.5 338 C130.77502794 333.07435157 124.11952221 328.06645012 117.5 323 C110.08758475 317.32762996 102.62775654 311.72869508 95.09375 306.21875 C87.34342721 300.54568563 79.68664206 294.76498154 72 289 C71.505 440.965 71.505 440.965 71 596 C-79.6808281 596 -79.6808281 596 -96.3125 580.1875 C-109.82156321 565.97194061 -111.60164528 550.71299947 -111.50793457 532.01126099 C-111.51254942 529.9978245 -111.51890625 527.98439139 -111.52684355 525.97096527 C-111.54347986 520.46523539 -111.53531635 514.95978428 -111.52289867 509.45405364 C-111.51382705 503.50572722 -111.52782847 497.55744785 -111.53881836 491.60913086 C-111.55556044 480.63865068 -111.5541331 469.66826577 -111.54317249 458.69778058 C-111.53309455 448.56046237 -111.53049075 438.42317653 -111.53526306 428.28585434 C-111.5355686 427.6123876 -111.53587414 426.93892086 -111.53618894 426.24504603 C-111.53743438 423.51093142 -111.53870799 420.77681683 -111.540028 418.04270226 C-111.55225413 392.41301331 -111.54118633 366.78338058 -111.51964041 341.15370031 C-111.50066341 318.40696149 -111.502354 295.66031226 -111.52148438 272.91357422 C-111.54292669 247.33260057 -111.55138261 221.75167658 -111.53903532 196.17069519 C-111.53775254 193.44105587 -111.53650117 190.71141653 -111.53526306 187.98177719 C-111.53494675 187.30971561 -111.53463044 186.63765402 -111.53430455 185.94522693 C-111.52976404 175.81820856 -111.53505832 165.69122619 -111.54518127 155.5642128 C-111.55641783 144.0420984 -111.55332646 132.52009295 -111.5320583 120.99799098 C-111.52156967 115.12270831 -111.51738879 109.24760709 -111.53065491 103.3723259 C-111.54263004 97.98720238 -111.53593197 92.6024274 -111.5147447 87.21733521 C-111.51030024 85.27601967 -111.51249597 83.33467429 -111.52224785 81.39337815 C-111.58980129 66.82031097 -110.14190536 53.652832 -103.125 40.5625 C-102.77767822 39.89347656 -102.43035645 39.22445312 -102.07250977 38.53515625 C-99.47852604 33.64449695 -96.61226925 29.20632945 -93 25 C-92.50371094 24.36191406 -92.00742188 23.72382813 -91.49609375 23.06640625 C-70.84359896 -2.46306321 -30.23779653 -12.37000767 0 0 Z " fill="#EA4234" transform="translate(111,4)"/>
<path d="M0 0 C1.1107489 0.62871002 2.2214978 1.25742004 3.36590576 1.90518188 C3.99070202 2.25883127 4.61549828 2.61248066 5.25922775 2.97684669 C7.28503184 4.16752983 9.1176576 5.49484428 10.953125 6.9609375 C11.64446533 7.50733887 12.33580566 8.05374023 13.0480957 8.61669922 C13.77472412 9.19693848 14.50135254 9.77717773 15.25 10.375 C21.52509045 15.32223128 27.86044537 20.16086799 34.3125 24.875 C41.10180563 29.84029218 47.82148555 34.88665692 54.5 40 C61.11938274 45.0666281 67.77503207 50.07435459 74.5 55 C82.12740017 60.5866242 89.65644565 66.29276338 97.1640625 72.0390625 C102.89902727 76.42064326 108.67759563 80.73542958 114.5 85 C122.12444345 90.58445858 129.65074933 96.28815632 137.15527344 102.0324707 C142.97576988 106.47960971 148.84167798 110.85784378 154.75 115.1875 C161.09006436 119.83382155 167.38205149 124.53634005 173.625 129.3125 C174.35428711 129.87026123 175.08357422 130.42802246 175.83496094 131.00268555 C180.86122736 134.86122736 180.86122736 134.86122736 182 136 C182.09716679 137.64725164 182.12371562 139.29870053 182.12304783 140.94881535 C182.12503888 142.02717563 182.12702993 143.10553591 182.12908131 144.21657377 C182.12616847 145.41596396 182.12325563 146.61535414 182.12025452 147.85108948 C182.12153615 149.74509763 182.12153615 149.74509763 182.12284368 151.67736858 C182.12509102 155.19820686 182.12106413 158.71901501 182.11606562 162.23984945 C182.1117647 166.03059668 182.11320729 169.82134208 182.1139679 173.61209106 C182.11449336 180.18515491 182.11134423 186.75820886 182.10573006 193.33127022 C182.09761808 202.83492356 182.09500015 212.3385721 182.09374207 221.84222852 C182.09155107 237.25964921 182.0848897 252.67706461 182.07543945 268.09448242 C182.06626657 283.0749509 182.05918513 298.05541795 182.05493164 313.03588867 C182.05466892 313.95860758 182.05440619 314.88132649 182.05413551 315.83200658 C182.05283051 320.46081396 182.05156679 325.08962134 182.05032361 329.71842873 C182.03994951 368.14562285 182.0223299 406.57281108 182 445 C164.23159688 445.09369591 146.46325842 445.16410238 128.69466114 445.20724869 C120.44324772 445.22782023 112.19198834 445.25583653 103.94067383 445.30175781 C96.74368084 445.34179215 89.5467995 445.36747206 82.34969825 445.37635398 C78.54350081 445.38154085 74.73762259 445.39361692 70.93152809 445.42292023 C67.33883453 445.45035279 63.74658741 445.45838983 60.15379906 445.45243073 C58.22751501 445.45403197 56.30127801 445.47540756 54.37512207 445.49768066 C38.56425127 445.42394292 26.09940619 440.03732723 14.6875 429.1875 C2.31363126 416.16650342 -0.61830097 401.63395553 -0.48101807 384.21318054 C-0.48276569 382.54791321 -0.48627409 380.88264698 -0.49137473 379.21738654 C-0.50026115 374.6745836 -0.48439897 370.13216241 -0.46426249 365.58940804 C-0.44690989 360.67820762 -0.45283969 355.76702691 -0.45587158 350.85580444 C-0.45796402 342.35779959 -0.44546601 333.85991804 -0.42292023 325.3619442 C-0.39034459 313.07548019 -0.37998752 300.78907551 -0.37496826 288.50257299 C-0.36622433 268.56621608 -0.33963324 248.62992481 -0.30175781 228.69360352 C-0.26501437 209.33292976 -0.23671402 189.97227387 -0.21972656 170.61157227 C-0.21867567 169.41720244 -0.21762477 168.22283262 -0.21654204 166.99226978 C-0.2113217 161.00017556 -0.20626691 155.00808122 -0.20129442 149.0159868 C-0.15986048 99.34394584 -0.08943664 49.67197613 0 0 Z " fill="#4284F3" transform="translate(0,155)"/>
<path d="M0 0 C0.09158244 50.86372773 0.16205241 101.72744712 0.20426132 152.5912411 C0.20926406 158.59801829 0.21444136 164.60479532 0.21972656 170.61157227 C0.2207758 171.80739875 0.22182505 173.00322524 0.22290608 174.2352889 C0.24030489 193.59054529 0.27183973 212.94575409 0.30861118 232.30098226 C0.34603513 252.16553005 0.36823894 272.03005295 0.37635398 291.89463454 C0.38183872 304.14926758 0.39915349 316.4037661 0.43166587 328.65835772 C0.45283167 337.0651095 0.45919535 345.47179188 0.45400551 353.87856837 C0.45144697 358.72673404 0.45533181 363.57466485 0.4768219 368.42278862 C0.49638011 372.8676922 0.49721025 377.31220443 0.48359558 381.75712655 C0.48191452 383.35897024 0.48690992 384.960839 0.49953273 386.56263383 C0.62840348 403.93640856 -3.65620201 417.52644088 -15.8125 430.3125 C-27.96744708 441.86336085 -41.60528364 445.64534472 -58.14379883 445.45410156 C-59.50530463 445.45296979 -60.86681286 445.45361335 -62.22831726 445.45587158 C-65.88054435 445.45700685 -69.53223272 445.43369347 -73.18433595 445.40557575 C-77.01728637 445.38036098 -80.85025275 445.37820444 -84.68327332 445.37347412 C-91.92198162 445.36110274 -99.16044472 445.32836136 -106.39904565 445.28807616 C-114.64824849 445.24317528 -122.89746381 445.22132564 -131.14675868 445.20129442 C-148.09798031 445.15962259 -165.04896413 445.08938579 -182 445 C-182.41236256 405.87401646 -182.72935494 366.74831704 -182.91917593 327.62059309 C-182.94168756 322.99705851 -182.96498547 318.3735282 -182.98876953 313.75 C-182.99349112 312.82957238 -182.99821271 311.90914476 -183.00307737 310.9608254 C-183.08131698 296.07397277 -183.22318877 281.18837641 -183.38875033 266.30226807 C-183.55732023 251.01773118 -183.65710771 235.73385032 -183.69359291 220.44842207 C-183.71824443 211.02217961 -183.79596596 201.59948796 -183.9424964 192.17433931 C-184.03794958 185.7033535 -184.06633739 179.23419181 -184.04302479 172.7625538 C-184.03153527 169.03189785 -184.04859993 165.30742263 -184.14569855 161.57787895 C-184.68385488 139.85579157 -184.68385488 139.85579157 -180.21875715 133.44095659 C-176.04434601 129.11810795 -171.33719087 125.9930987 -166.07349753 123.14298558 C-163.46518683 121.70519196 -161.15837582 119.97645398 -158.82421875 118.1328125 C-157.44687111 117.12806823 -156.0680038 116.12540333 -154.6875 115.125 C-147.89637129 110.1622521 -141.17845525 105.11329775 -134.5 100 C-127.11367991 94.34634038 -119.66805268 88.78529611 -112.1640625 83.2890625 C-106.22328567 78.92722968 -100.3524674 74.47945452 -94.5 70 C-87.11358208 64.34646605 -79.66805534 58.78529806 -72.1640625 53.2890625 C-66.22328567 48.92722968 -60.3524674 44.47945452 -54.5 40 C-47.12523087 34.35538199 -39.69234958 28.80169908 -32.19921875 23.31542969 C-24.98399622 18.01921382 -17.86685016 12.59760676 -10.76367188 7.15234375 C-9.92384766 6.50910156 -9.08402344 5.86585938 -8.21875 5.203125 C-7.47560547 4.63239258 -6.73246094 4.06166016 -5.96679688 3.47363281 C-1.33068257 0 -1.33068257 0 0 0 Z " fill="#34A852" transform="translate(800,155)"/>
<path d="M0 0 C2.14885025 1.64538449 4.19728943 3.36045808 6.23828125 5.13671875 C6.81320312 5.56984375 7.388125 6.00296875 7.98046875 6.44921875 C22.63348383 17.79348849 30.95483648 36.32463341 34.23828125 54.13671875 C35.0470937 60.77231614 35.13876644 67.46377071 35.26171875 74.140625 C35.28051716 75.06922773 35.29931557 75.99783047 35.31868362 76.95457268 C35.41301302 81.85952209 35.48070073 86.76406967 35.52880859 91.66967773 C35.57335313 95.6941868 35.6711128 99.71200036 35.81591797 103.73413086 C37.05616555 138.95957582 37.05616555 138.95957582 30.46118164 146.7265625 C26.79689269 149.97284722 22.85141631 152.20950862 18.38122559 154.16830444 C15.62157359 155.41541405 13.40751897 157.10232661 11.0625 159.00390625 C9.68515236 160.00865052 8.30628505 161.01131542 6.92578125 162.01171875 C0.13465254 166.97446665 -6.5832635 172.023421 -13.26171875 177.13671875 C-20.64803884 182.79037837 -28.09366607 188.35142264 -35.59765625 193.84765625 C-41.53843308 198.20948907 -47.40925135 202.65726423 -53.26171875 207.13671875 C-60.64813667 212.7902527 -68.09366341 218.35142069 -75.59765625 223.84765625 C-81.53843308 228.20948907 -87.40925135 232.65726423 -93.26171875 237.13671875 C-100.63693073 242.78167572 -108.06858933 248.33807643 -115.56469727 253.82128906 C-122.76265003 259.10094624 -129.85032704 264.52165413 -136.91015625 269.984375 C-138.16505859 270.94923828 -138.16505859 270.94923828 -139.4453125 271.93359375 C-140.55217407 272.78969238 -140.55217407 272.78969238 -141.68139648 273.66308594 C-143.64954256 275.05725678 -145.59760294 276.08601422 -147.76171875 277.13671875 C-148.01279196 247.09777606 -148.20739374 217.05886941 -148.32343737 187.01910866 C-148.33719474 183.47066381 -148.35143232 179.92222104 -148.3659668 176.3737793 C-148.36885221 175.66736439 -148.37173763 174.96094948 -148.37471048 174.23312806 C-148.42254312 162.8028322 -148.50925442 151.37314644 -148.61039951 139.94321222 C-148.71335791 128.21028809 -148.77438417 116.4776829 -148.79669219 104.74432558 C-148.81103182 98.15551615 -148.84472176 91.56808921 -148.92474937 84.97972298 C-148.99948642 78.7765778 -149.02243248 72.57538264 -149.00590324 66.37182999 C-149.00892639 64.09695901 -149.03076882 61.82202201 -149.07297897 59.54754066 C-149.3920605 41.46502674 -149.3920605 41.46502674 -145.39574623 36.86492729 C-142.6160447 34.55306752 -139.93650535 32.84749968 -136.76171875 31.13671875 C-135.16062783 29.95109639 -133.57493457 28.74396519 -132.015625 27.50390625 C-130.45380201 26.33718974 -128.88995117 25.17318353 -127.32421875 24.01171875 C-125.58442749 22.71642506 -123.84485056 21.42084346 -122.10546875 20.125 C-121.22503906 19.46967285 -120.34460938 18.8143457 -119.4375 18.13916016 C-116.77410612 16.14598893 -114.12539737 14.13478071 -111.48046875 12.1171875 C-77.62899014 -13.65986017 -38.25908882 -25.81270915 0 0 Z " fill="#FABB04" transform="translate(765.76171875,13.86328125)"/>
<path d="M0 0 C0.62165039 0.25249512 1.24330078 0.50499023 1.88378906 0.76513672 C12.7444343 5.3169059 21.61716542 11.95509766 30.77294922 19.25146484 C34.57432958 22.236061 38.47496114 25.08377345 42.375 27.9375 C44.53860287 29.52494411 46.69554683 31.1118693 48.82069683 32.75068474 C51.38331717 34.56370499 53.88582899 36.08752693 56.60913563 37.62649727 C69.33054527 45.23751298 69.33054527 45.23751298 72.09266448 51.46256208 C73.77751158 58.36149898 73.38373523 65.39251032 73.15698242 72.43701172 C73.15161482 74.78387005 73.15464743 77.13076022 73.16539001 79.4776001 C73.17081691 85.81411524 73.05956441 92.14372288 72.92648482 98.47863913 C72.81936634 104.43828012 72.8006077 110.39767502 72.78109924 116.35814871 C72.73964755 128.15363284 72.61358028 139.94660201 72.43334961 151.74072266 C72.25859471 163.18851245 72.12428361 174.63561601 72.04370117 186.08447266 C72.03870943 186.79169947 72.03371768 187.49892629 72.02857467 188.22758423 C72.0037766 191.77600002 71.97976671 195.32442063 71.95614851 198.87284446 C71.7595964 228.25018266 71.42389529 257.62506435 71 287 C69.58527081 286.0675051 68.1719806 285.13282691 66.75927734 284.19726562 C65.9720932 283.67700806 65.18490906 283.15675049 64.37387085 282.62072754 C60.65641247 280.08268417 57.14899178 277.29727596 53.625 274.5 C47.38897271 269.5990077 41.09009971 264.80624065 34.6875 260.125 C27.89837097 255.15946098 21.17852028 250.11334754 14.5 245 C7.88061726 239.9333719 1.22496793 234.92564541 -5.5 230 C-13.12740017 224.4133758 -20.65644565 218.70723662 -28.1640625 212.9609375 C-33.89902727 208.57935674 -39.67759563 204.26457042 -45.5 200 C-52.22497206 195.07435157 -58.88047779 190.06645012 -65.5 185 C-72.91241525 179.32762996 -80.37224346 173.72869508 -87.90625 168.21875 C-89.32602049 167.17950949 -90.73361674 166.12344821 -92.12904358 165.05174255 C-94.3690138 163.45093726 -96.55289183 162.08163772 -98.92649841 160.70814514 C-109.63171589 154.15991266 -109.63171589 154.15991266 -111.91037941 148.89757156 C-113.28163901 143.10380489 -112.94078992 137.2294476 -112.703125 131.32421875 C-112.68337662 129.42679881 -112.67021549 127.52930015 -112.66326904 125.63179016 C-112.63284143 121.66805714 -112.55113523 117.71017485 -112.42675781 113.74829102 C-112.26878355 108.71179529 -112.19636035 103.67908942 -112.15752029 98.64039898 C-112.11728877 93.78451027 -112.03813351 88.9295012 -111.953125 84.07421875 C-111.93954201 83.16902685 -111.92595901 82.26383495 -111.91196442 81.331213 C-111.6511724 66.91083555 -110.05922194 53.4985826 -103.125 40.5625 C-102.77767822 39.89347656 -102.43035645 39.22445312 -102.07250977 38.53515625 C-99.47852604 33.64449695 -96.61226925 29.20632945 -93 25 C-92.50371094 24.36191406 -92.00742188 23.72382813 -91.49609375 23.06640625 C-70.84359896 -2.46306321 -30.23779653 -12.37000767 0 0 Z " fill="#C5221F" transform="translate(111,4)"/>
</svg>
